<?xml version="1.0" standalone="no"?>
<!DOCTYPE svg PUBLIC "-//W3C//DTD SVG 1.1//EN" 
  "http://www.w3.org/Graphics/SVG/1.1/DTD/svg11.dtd">
<svg width="500" height="500" 
     xmlns="http://www.w3.org/2000/svg" version="1.1">
  <title>Example triangle01- simple example of a 'path'</title>
  <desc>A path that draws a triangle</desc>
  

		
<g class="venn-area venn-circle venn-sets-0"><path d="
M 260.76358424666694 138.44163259531217 
m -95.71804310978031 0 
a 95.71804310978031 95.71804310978031 0 1 0 191.43608621956062 0 
a 95.71804310978031 95.71804310978031 0 1 0 -191.43608621956062 0" style="fill-opacity: 0.25; fill: rgb(31, 119, 180); stroke-opacity: 0; stroke: rgb(255, 255, 255); stroke-width: 0px;"></path><text text-anchor="middle" dy=".35em" x="281" y="99" style="fill: rgb(31, 119, 180);"><tspan x="281" y="99" dy="0.35em">001 (1)</tspan></text></g>

<g class="venn-area venn-circle venn-sets-1"><path d="
M 349.63424527033607 291.4878966472605 
m -135.3657547296639 0 
a 135.3657547296639 135.3657547296639 0 1 0 270.7315094593278 0 
a 135.3657547296639 135.3657547296639 0 1 0 -270.7315094593278 0" style="fill-opacity: 0.25; fill: rgb(255, 127, 14); stroke-opacity: 0; stroke: rgb(255, 255, 255); stroke-width: 0px;"></path><text text-anchor="middle" dy=".35em" x="415" y="291" style="fill: rgb(255, 127, 14);"><tspan x="415" y="291" dy="0.35em">010 (2)</tspan></text></g>

<g class="venn-area venn-circle venn-sets-2"><path d="
M 180.7885138672076 291.4878966472605 
m -165.7885138672076 0 
a 165.7885138672076 165.7885138672076 0 1 0 331.5770277344152 0 
a 165.7885138672076 165.7885138672076 0 1 0 -331.5770277344152 0" style="fill-opacity: 0.25; fill: rgb(44, 160, 44); stroke-opacity: 0; stroke: rgb(255, 255, 255); stroke-width: 0px;"></path><text text-anchor="middle" dy=".35em" x="114" y="291" style="fill: rgb(44, 160, 44);"><tspan x="114" y="291" dy="0.35em">100 (4)</tspan></text></g>

<g class="venn-area venn-intersection venn-sets-0_1"><path d="
M 229.58589155655483 228.9396726585461 
A 135.3657547296639 135.3657547296639 0 0 1 354.8158326734861 156.22134976476246 
A 95.71804310978031 95.71804310978031 0 0 1 229.58589155655483 228.9396726585461" style="fill-opacity: 0.5; stroke-opacity: 0; stroke: rgb(255, 255, 255); stroke-width: 0px;"></path><text text-anchor="middle" dy=".35em" x="326" y="177" style="fill: rgb(68, 68, 68);"><tspan x="326" y="177" dy="0.35em">011 (3)</tspan></text></g>

<g class="venn-area venn-intersection venn-sets-0_2"><path d="
M 165.8088549135079 126.37750585392455 
A 165.7885138672076 165.7885138672076 0 0 1 324.88794294551457 209.50505777470585 
A 95.71804310978031 95.71804310978031 0 0 1 165.8088549135079 126.37750585392455" style="fill-opacity: 0.5; stroke-opacity: 0; stroke: rgb(255, 255, 255); stroke-width: 0px;"></path><text text-anchor="middle" dy=".35em" x="218" y="172" style="fill: rgb(68, 68, 68);"><tspan x="218" y="172" dy="0.35em">101 (5)</tspan></text></g>

<g class="venn-area venn-intersection venn-sets-1_2"><path d="
M 292.34248824599126 414.1318615643936 
A 135.3657547296639 135.3657547296639 0 0 1 292.34248824599126 168.84393173012745 
A 165.7885138672076 165.7885138672076 0 0 1 292.34248824599126 414.1318615643936" style="fill-opacity: 0.5; stroke-opacity: 0; stroke: rgb(255, 255, 255); stroke-width: 0px;"></path><text text-anchor="middle" dy=".35em" x="280" y="298" style="fill: rgb(68, 68, 68);"><tspan x="280" y="298" dy="0.35em">110 (6)</tspan></text></g>



<g class="venn-area venn-intersection venn-sets-0_1_2"><path d="
M 229.58589155655483 228.9396726585461 
A 135.3657547296639 135.3657547296639 0 0 1 292.34248824599126 168.84393173012745 
A 165.7885138672076 165.7885138672076 0 0 1 324.88794294551457 209.50505777470585 
A 95.71804310978031 95.71804310978031 0 0 1 229.58589155655483 228.9396726585461" style="fill-opacity: 0.5; stroke-opacity: 1; stroke: rgb(255, 255, 255); stroke-width: 0px;"></path><text text-anchor="middle" dy=".35em" x="250" y="250" style="fill: rgb(68, 68, 68);">111 (7)</text></g>

<g class="venn-area venn-intersection venn-sets-0_2_n1"><path d="
M 165.8088549135079 126.37750585392455 
A 165.7885138672076 165.7885138672076 0 0 1 292.34248824599126 168.84393173012745 
A 135.3657547296639 135.3657547296639 0 0 0 229.58589155655483 228.9396726585461 
A 95.71804310978031 95.71804310978031 0 0 1 165.8088549135079 126.37750585392455" style="fill-opacity: 0.5; stroke-opacity: 1; stroke: rgb(125, 0, 0); stroke-width: 4px;"></path><text text-anchor="middle" dy=".35em" x="20" y="20" style="fill: rgb(68, 68, 68);">x101x</text></g>

<g class="venn-area venn-intersection venn-sets-1_2_n0"><path d="
M 229.58589155655483 228.9396726585461 
A 95.71804310978031 95.71804310978031 0 0 0 324.88794294551457 209.5050577747059 
A 165.7885138672076 165.7885138672076 0 0 1 292.34248824599126 414.1318615643936 
A 135.3657547296639 135.3657547296639 0 0 1 229.58589155655483 228.9396726585461" style="fill-opacity: 0.5; stroke-opacity: 1; stroke: rgb(0, 125, 0); stroke-width: 4px;"></path><text text-anchor="middle" dy=".35em" x="20" y="20" style="fill: rgb(68, 68, 68);">x110x</text></g>

<g class="venn-area venn-intersection venn-sets-0_1_n2"><path d="
M 292.34248824599126 168.84393173012745 
A 135.3657547296639 135.3657547296639 0 0 1 354.8158326734861 156.22134976476246 
A 95.71804310978031 95.71804310978031 0 0 1 324.88794294551457 209.50505777470585 
A 165.7885138672076 165.7885138672076 0 0 0 292.34248824599126 168.84393173012745" style="fill-opacity: 0.5; stroke-opacity: 1; stroke: rgb(0, 0, 125); stroke-width: 4px;"></path><text text-anchor="middle" dy=".35em" x="20" y="20" style="fill: rgb(68, 68, 68);">x011x</text></g>


<!--Red top left-->
	<circle cx="292" cy="168" r="4" 
	style="fill-opacity: 1; fill:rgb(255, 0, 0); "/>
	<text text-anchor="middle" dy=".35em" x="292" y="168" style="fill: rgb(255, 0, 0);"><tspan x="292" y="168" dy="1.0em">292, 168</tspan></text>

<!--green top right-->
	<circle cx="354" cy="156" r="4" 
	style="fill-opacity: 1; fill:rgb(0, 255, 0); "/>
	<text text-anchor="middle" dy=".35em" x="354" y="156" style="fill: rgb(255, 0, 0);"><tspan x="354" y="156" dy="1.0em">354, 156</tspan></text>
	
<!--blue bottom right-->
	<circle cx="324" cy="209" r="4" 
	style="fill-opacity: 1; fill:rgb(0, 0, 255); "/>
	<text text-anchor="middle" dy=".35em" x="324" y="209" style="fill: rgb(255, 0, 0);"><tspan x="324" y="209" dy="1.0em">324, 209</tspan></text>
	
<!--cyan bottom-->
	<circle cx="292" cy="414" r="4" 
	style="fill-opacity: 1; fill:rgb(0, 255, 255); "/>
	<text text-anchor="middle" dy=".35em" x="292" y="414" style="fill: rgb(255, 0, 0);"><tspan x="292" y="414" dy="1.0em">292, 414</tspan></text>
	
<!--magenta middle left-->
	<circle cx="229" cy="228" r="4" 
	style="fill-opacity: 1; fill:rgb(255, 0, 255); "/>
	<text text-anchor="middle" dy=".35em" x="229" y="228" style="fill: rgb(255, 0, 0);"><tspan x="229" y="228" dy="1.0em">229, 228</tspan></text>

<!--yellow middle left-->
	<circle cx="165" cy="126" r="4" 
	style="fill-opacity: 1; fill:rgb(255, 255, 0); "/>
	<text text-anchor="middle" dy=".35em" x="165" y="126" style="fill: rgb(255, 0, 0);"><tspan x="165" y="126" dy="1.0em">165, 126</tspan></text>

<!--MP-->
	<circle cx="277" cy="219" r="4" 
	style="fill-opacity: 1; fill:rgb(255, 255, 255); "/>
	<text text-anchor="middle" dy=".35em" x="277" y="219" style="fill: rgb(255, 0, 0);"><tspan x="277" y="219" dy="1.0em">MP</tspan></text>

<!--abnc_Circle-->
	<circle cx="260" cy="138" r="95.7" 
	style="fill-opacity: 0.25; fill:rgb(0, 125, 125); "/>
	<text text-anchor="middle" dy=".35em" x="277" y="219" style="fill: rgb(255, 0, 0);"><tspan x="260" y="138" dy="1.0em"></tspan></text>

<!--abnc_Circle, center-->
	<circle cx="260" cy="138" r="4" 
	style="fill-opacity: 1; fill:rgb(0, 125, 125); "/>
	<text text-anchor="middle" dy=".35em" x="277" y="219" style="fill: rgb(255, 0, 0);"><tspan x="260" y="138" dy="1.0em">260, 138</tspan></text>
	
<!--Wrong width point-->
	<circle cx="241.63" cy="44.65" r="4" 
	style="fill-opacity: 1; fill:rgb(0, 125, 125); "/>
	
	
<!--abnc_Circle, center-->
	<circle cx="279.89" cy="232.23" r="4" 
	style="fill-opacity: 1; fill:rgb(0, 125, 125); "/>
	
	<path d="
M 165.8088549135079 126.37750585392455 
A 95.71804310978031 95.71804310978031 0 1 1 354.8158326734861 156.22134976476246 
A 135.3657547296639 135.3657547296639 0 0 0 292.34248824599126 168.84393173012745 
A 165.7885138672076 165.7885138672076 0 0 0 165.8088549135079 126.37750585392455" style="fill-opacity: 0.5; stroke-opacity: 1; stroke: rgb(0, 0, 0); stroke-width: 4px;"></path>

	<path d="
M 292.34248824599126 414.1318615643936 
A 165.7885138672076 165.7885138672076 0 0 0 324.88794294551457 209.50505777470585 
A 95.71804310978031 95.71804310978031 0 0 0 354.8158326734861 156.22134976476246 
A 135.3657547296639 135.3657547296639 0 1 1 292.34248824599126 414.1318615643936" style="fill-opacity: 0.5; stroke-opacity: 1; stroke: rgb(100, 100, 100); stroke-width: 4px;"></path>

	<path d="
M 165.8088549135079 126.37750585392457 
A 95.71804310978031 95.71804310978031 0 0 0 229.58589155655483 228.9396726585461 
A 135.3657547296639 135.3657547296639 0 0 0 292.34248824599126 414.1318615643936 
A 165.7885138672076 165.7885138672076 0 1 1 165.8088549135079 126.37750585392457" style="fill-opacity: 0.5; stroke-opacity: 1; stroke: rgb(200, 200, 200); stroke-width: 4px;"></path>

<!--abnc_Circle, center-->
	<circle cx="292.34248824599126" cy="168.84393173012745 " r="4" 
	style="fill-opacity: 1; fill:rgb(255, 125, 125); "/>
	
	<!--abnc_Circle, center-->
	<circle cx="354.8158326734861" cy="156.22134976476246" r="4" 
	style="fill-opacity: 1; fill:rgb(255, 125, 125); "/>
	
	<!--abnc_Circle, center-->
	<circle cx="324.88794294551457" cy="209.50505777470585" r="4" 
	style="fill-opacity: 1; fill:rgb(255, 125, 125); "/>
	
	<!--abnc_Circle, center-->
	<circle cx="229.58589155655483" cy="228.9396726585461" r="4" 
	style="fill-opacity: 1; fill:rgb(255, 125, 125); "/>
	
	<!--abnc_Circle, center-->
	<circle cx="165.8088549135079" cy="126.37750585392455" r="4" 
	style="fill-opacity: 1; fill:rgb(255, 125, 125); "/>
	
	<path d="
M 273.48634295668387 261.66812074151574 
A 94.44474362350813 94.44474362350813 0 0 0 337.1373392687523 109.17357976474699 
A 191.8506967680432 191.8506967680432 0 0 0 367.1404246187353 355.42245015144897 
A 106.07866363042059 106.07866363042059 0 1 1 273.48634295668387 261.66812074151574" style="fill-opacity: 0.5; stroke-opacity: 1; stroke: rgb(155, 115, 255); stroke-width: 4px;"></path>
	

	
	

	

  
  
  
  
  

</svg>