<?xml version="1.0" standalone="no"?>
<!DOCTYPE svg PUBLIC "-//W3C//DTD SVG 1.1//EN" 
  "http://www.w3.org/Graphics/SVG/1.1/DTD/svg11.dtd">
<svg width="500" height="500" 
     xmlns="http://www.w3.org/2000/svg" version="1.1">
  <title>Example triangle01- simple example of a 'path'</title>
  <desc>A path that draws a triangle</desc>
  
<g class="venn-area venn-circle venn-sets-1"><path d="
M 341.0137547754005 203.96503541739276 
m -92.59288573030878 0 
a 92.59288573030878 92.59288573030878 0 1 0 185.18577146061756 0 
a 92.59288573030878 92.59288573030878 0 1 0 -185.18577146061756 0" style="fill-opacity: 0.25; fill: rgb(255, 127, 14); stroke-opacity: 0; stroke: rgb(255, 255, 255); stroke-width: 0px;"></path><text text-anchor="middle" dy=".35em" x="367" y="131" style="fill: rgb(255, 127, 14);"><tspan x="367" y="131" dy="0.35em">Edge</tspan></text></g>
		
<g class="venn-area venn-circle venn-sets-3"><path d="
M 371.785624088404 250.00000000000003 
m -103.99868963708619 0 
a 103.99868963708619 103.99868963708619 0 1 0 207.99737927417237 0 
a 103.99868963708619 103.99868963708619 0 1 0 -207.99737927417237 0" style="fill-opacity: 0.25; fill: rgb(214, 39, 40); stroke-opacity: 0; stroke: rgb(255, 255, 255); stroke-width: 0px;"></path><text text-anchor="middle" dy=".35em" x="417" y="303" style="fill: rgb(214, 39, 40);"><tspan x="417" y="303" dy="0.35em">Firefox 43</tspan></text></g>

<g class="venn-area venn-circle venn-sets-4"><path d="
M 203.08891804436988 250 
m -188.08891804436988 0 
a 188.08891804436988 188.08891804436988 0 1 0 376.17783608873975 0 
a 188.08891804436988 188.08891804436988 0 1 0 -376.17783608873975 0" style="fill-opacity: 0.25; fill: rgb(148, 103, 189); stroke-opacity: 0; stroke: rgb(255, 255, 255); stroke-width: 0px;"></path><text text-anchor="middle" dy=".35em" x="138" y="271" style="fill: rgb(148, 103, 189);"><tspan x="138" y="271" dy="0.35em">Safari 9</tspan></text></g>
	
	
	
<g class="venn-area venn-intersection venn-sets-3_n1_n4"><path style="stroke: red; stroke-width: 4px; fill-opacity: 0.25" d="
M 360.23570981734713 353.3553429995867 
A 103.99868963708619 103.99868963708619 0 1 1 421.87765365100745 158.8599099159418 
A 92.59288573030878 92.59288573030878 0 1 0 388.1400158303989 283.66797141627654 
A 188.08891804436988 188.08891804436988 0 1 0 360.23570981734713 353.3553429995867"></path><text text-anchor="middle" dy=".35em" x="250" y="250" style="fill: rgb(68, 68, 68);">x3n1n4x</text></g>
	
<g class="venn-area venn-intersection venn-sets-1_n3_n4"><path d="
M 330.82092264170507 111.93488459191424 
A 92.59288573030878 92.59288573030878 0 0 1 421.87765365100745 158.8599099159418 
A 103.99868963708619 103.99868963708619 0 0 0 360.23570981734713 146.64465700041333 
A 188.08891804436988 188.08891804436988 0 0 0 330.82092264170507 111.93488459191424" style="fill-opacity: 0.5; stroke-opacity: 0; stroke: rgb(255, 255, 255); stroke-width: 0px;"></path><text text-anchor="middle" dy=".35em" x="250" y="250" style="fill: rgb(68, 68, 68);">x1n3n4x</text></g>
  
<g class="venn-area venn-intersection venn-sets-4_n1_n3"><path d="
M 268.4179853677747 261.43934926263006 
A 92.59288573030878 92.59288573030878 0 1 0 330.820922641705 111.93488459191421 
A 188.08891804436988 188.08891804436988 0 0 1 360.23570981734713 353.35534299958675 
A 103.99868963708619 103.99868963708619 0 1 0 268.4179853677747 261.43934926263006" style="fill-opacity: 0.5; stroke-opacity: 0; stroke: rgb(255, 255, 255); stroke-width: 0px;"></path><text text-anchor="middle" dy=".35em" x="250" y="250" style="fill: rgb(68, 68, 68);">x4n1n3x</text></g>  
  
<circle cx="360.23570981734713" cy="353.3553429995867" r="4" 
style="fill-opacity: 1; fill:rgb(0, 0, 0); "/>
<text text-anchor="middle" dy=".35em" x="277" y="219" style="fill: rgb(0, 0, 0);">
<tspan x="360" y="353" dy="1.0em">360, 353</tspan></text>

<circle cx="421.87765365100745" cy="158.8599099159418" r="4" 
style="fill-opacity: 1; fill:rgb(100, 100, 100); "/>
<text text-anchor="middle" dy=".35em" x="277" y="219" style="fill: rgb(0, 0, 0);">
<tspan x="421.87765365100745" y="158.8599099159418" dy="1.0em">421, 158</tspan></text>

<circle cx="388.1400158303989" cy="283.66797141627654" r="4" 
style="fill-opacity: 1; fill:rgb(200, 200, 200); "/>
<text text-anchor="middle" dy=".35em" x="388.1400158303989" y="283.66797141627654" style="fill: rgb(0, 0, 0);">
<tspan x="388.1400158303989" y="283.66797141627654" dy="1.0em">388, 283</tspan></text>

<circle cx="390.0844597662512" cy="265.29440811060164" r="4" 
style="fill-opacity: 1; fill:rgb(0, 200, 0); "/>
<text text-anchor="middle" dy=".35em" x="388.1400158303989" y="265.29440811060164" style="fill: rgb(0, 0, 0);">
<tspan x="390.0844597662512" y="265.29440811060164" dy="1.0em">390, 265</tspan></text>

<circle cx="371.785624088404" cy="250.00000000000003" r="4" 
style="fill-opacity: 1; fill:rgb(200, 0, 0); "/>
<text text-anchor="middle" dy=".35em" x="371.785624088404" y="250.00000000000003" style="fill: rgb(0, 0, 0);">
<tspan x="371.785624088404" y="250.00000000000003" dy="1.0em">371, 250</tspan></text>
  
  

</svg>