<?xml version="1.0" standalone="no"?>
<!DOCTYPE svg PUBLIC "-//W3C//DTD SVG 1.1//EN" 
  "http://www.w3.org/Graphics/SVG/1.1/DTD/svg11.dtd">
<svg width="500" height="500" 
     xmlns="http://www.w3.org/2000/svg" version="1.1">
  <title>Example triangle01- simple example of a 'path'</title>
  <desc>A path that draws a triangle</desc>
  

		
<g class="venn-area venn-circle venn-sets-1"><path d="
M 344.9905630492985 332.2651608040644 
m -140.00943695070148 0 
a 140.00943695070148 140.00943695070148 0 1 0 280.01887390140297 0 
a 140.00943695070148 140.00943695070148 0 1 0 -280.01887390140297 0" style="fill-opacity: 0.25; fill: rgb(255, 127, 14); stroke-opacity: 0; stroke: rgb(255, 255, 255); stroke-width: 0px;"></path><text text-anchor="middle" dy=".35em" x="386" y="356" style="fill: rgb(255, 127, 14);"><tspan x="386" y="356" dy="0.35em">010 (2)</tspan></text></g>

<g class="venn-area venn-circle venn-sets-2"><path d="
M 250.00160224341187 167.73483919593554 
m -140.00943695070148 0 
a 140.00943695070148 140.00943695070148 0 1 0 280.01887390140297 0 
a 140.00943695070148 140.00943695070148 0 1 0 -280.01887390140297 0" style="fill-opacity: 0.25; fill: rgb(44, 160, 44); stroke-opacity: 0; stroke: rgb(255, 255, 255); stroke-width: 0px;"></path><text text-anchor="middle" dy=".35em" x="250" y="120" style="fill: rgb(44, 160, 44);"><tspan x="250" y="120" dy="0.35em">100 (4)</tspan></text></g><g class="venn-area venn-circle venn-sets-0"><path d="
M 155.00943695070148 332.2651608040644 
m -140.00943695070148 0 
a 140.00943695070148 140.00943695070148 0 1 0 280.01887390140297 0 
a 140.00943695070148 140.00943695070148 0 1 0 -280.01887390140297 0" style="fill-opacity: 0.25; fill: rgb(31, 119, 180); stroke-opacity: 0; stroke: rgb(255, 255, 255); stroke-width: 0px;"></path><text text-anchor="middle" dy=".35em" x="113" y="356" style="fill: rgb(31, 119, 180);"><tspan x="113" y="356" dy="0.35em">001 (1)</tspan></text></g>

<g class="venn-area venn-intersection venn-sets-0_1"><path d="
M 249.99999999999997 435.1215430408012 
A 140.00943695070148 140.00943695070148 0 0 1 249.99999999999997 229.4087785673276 
A 140.00943695070148 140.00943695070148 0 0 1 249.99999999999997 435.1215430408012" style="fill-opacity: 0; stroke-opacity: 100; stroke: rgb(255, 255, 255); stroke-width: 2px;"></path><text text-anchor="middle" dy=".35em" x="249" y="350" style="fill: rgb(68, 68, 68);"><tspan x="249" y="350" dy="0.35em">011 (3)</tspan></text></g>

<g class="venn-area venn-intersection venn-sets-1_2"><path d="
M 208.4195349406225 301.4269261497966 
A 140.00943695070148 140.00943695070148 0 0 1 386.5726303520879 198.57307385020331 
A 140.00943695070148 140.00943695070148 0 0 1 208.4195349406225 301.4269261497966" style="fill-opacity: 0; stroke-opacity: 100; stroke: rgb(255, 255, 255); stroke-width: 2px;"></path><text text-anchor="middle" dy=".35em" x="313" y="240" style="fill: rgb(68, 68, 68);"><tspan x="313" y="240" dy="0.35em">110 (6)</tspan></text></g>

<g class="venn-area venn-intersection venn-sets-0_2"><path d="
M 113.43036385876644 198.5721426016617 
A 140.00943695070148 140.00943695070148 0 0 1 291.5806753353469 301.42785739833823 
A 140.00943695070148 140.00943695070148 0 0 1 113.43036385876644 198.5721426016617" style="fill-opacity: 0; stroke-opacity: 100; stroke: rgb(255, 255, 255); stroke-width: 2px;"></path><text text-anchor="middle" dy=".35em" x="186" y="240" style="fill: rgb(68, 68, 68);"><tspan x="186" y="240" dy="0.35em">101 (5)</tspan></text></g>

<g class="venn-area venn-intersection venn-sets-0_1_2"><path d="
M 249.99999999999997 229.4087785673276 
A 140.00943695070148 140.00943695070148 0 0 1 291.5806753353469 301.42785739833823 
A 140.00943695070148 140.00943695070148 0 0 1 208.4195349406225 301.4269261497966 
A 140.00943695070148 140.00943695070148 0 0 1 249.99999999999997 229.4087785673276" style="fill-opacity: 0; stroke-opacity: 100; stroke: rgb(255, 255, 255); stroke-width: 2px;"></path><text text-anchor="middle" dy=".35em" x="249" y="277" style="fill: rgb(68, 68, 68);"><tspan x="249" y="277" dy="0.35em">111 (7)</tspan></text></g>

<g class="venn-area venn-intersection venn-sets-0_2">
<path d="
M 113.43036385876644 198.5721426016617 
A 140.00943695070148 140.00943695070148 0 0 1 291.5806753353469 301.42785739833823 
A 140.00943695070148 140.00943695070148 0 0 1 113.43036385876644 198.5721426016617
" style="fill-opacity: 0; stroke-opacity: 100; stroke: rgb(255, 0, 0); stroke-width: 2px;"></path>
<text text-anchor="middle" dy=".35em" x="186" y="240" style="fill: rgb(68, 68, 68);"><tspan x="186" y="240" dy="0.35em">101 (5)</tspan></text></g>

<!--101-->
<path d="
M 113.43036385876644 198.5721426016617 
A 140.00943695070148 140.00943695070148 0 0 0 208.4195349406225 301.4269261497966 
A 140.00943695070148 140.00943695070148 0 0 1 249.99999999999997 229.4087785673276
A 140.00943695070148 140.00943695070148 0 0 0 113.43036385876644 198.5721426016617

" style="fill-opacity: 0; stroke-opacity: 100; stroke: rgb(255, 0, 255); stroke-width: 2px;"></path>

<!--top left red-->
<circle cx="113.43036385876644" cy="198.5721426016617" r="4" 
	style="fill-opacity: 1; fill:rgb(255, 0, 0); "/>
  <text text-anchor="middle" dy=".35em" x="113.43036385876644" y="198.5721426016617" style="fill: rgb(68, 68, 68);"><tspan x="113.43036385876644" y="198.5721426016617" dy="-1.0em">113, 198</tspan></text>
	
<!--bottom green-->
<circle cx="208.4195349406225" cy="301.4269261497966" r="4" 
	style="fill-opacity: 1; fill:rgb(0, 255, 0); "/>
	<text text-anchor="middle" dy=".35em" x="208.4195349406225" y="301.4269261497966" style="fill: rgb(68, 68, 68);"><tspan x="208.4195349406225" y="301.4269261497966" dy="1.0em">208, 301</tspan></text>

<!--top right blue-->
<circle cx="249.99999999999997" cy="229.4087785673276" r="4" 
	style="fill-opacity: 1; fill:rgb(0, 0, 255); "/>
  <text text-anchor="middle" dy=".35em" x="249.99999999999997" y="229.4087785673276" style="fill: rgb(68, 68, 68);"><tspan x="249.99999999999997" y="229.4087785673276" dy="-1.0em">246, 229</tspan></text>


</svg>