<?xml version="1.0" standalone="no"?>
<!DOCTYPE svg PUBLIC "-//W3C//DTD SVG 1.1//EN" 
  "http://www.w3.org/Graphics/SVG/1.1/DTD/svg11.dtd">
<svg width="500" height="500" 
     xmlns="http://www.w3.org/2000/svg" version="1.1">
  <title>Example triangle01- simple example of a 'path'</title>
  <desc>A path that draws a triangle</desc>
  

		
<g class="venn-area venn-circle venn-sets-1"><path d="
M 347.5340287178225 203.04434244162337 
m -94.44474445573543 0 
a 94.44474445573543 94.44474445573543 0 1 0 188.88948891147086 0 
a 94.44474445573543 94.44474445573543 0 1 0 -188.88948891147086 0" style="fill-opacity: 0.25; fill: rgb(255, 127, 14); stroke-opacity: 0; stroke: rgb(255, 255, 255); stroke-width: 0px;"></path><text text-anchor="middle" dy=".35em" x="374" y="128" style="fill: rgb(255, 127, 14);"><tspan x="374" y="128" dy="0.35em">Edge</tspan></text></g>

<g class="venn-area venn-circle venn-sets-3"><path d="
M 378.92133543483635 250.00000000000003 
m -106.07866456516358 0 
a 106.07866456516358 106.07866456516358 0 1 0 212.15732913032716 0 
a 106.07866456516358 106.07866456516358 0 1 0 -212.15732913032716 0" style="fill-opacity: 0.25; fill: rgb(214, 39, 40); stroke-opacity: 0; stroke: rgb(255, 255, 255); stroke-width: 0px;"></path><text text-anchor="middle" dy=".35em" x="425" y="304" style="fill: rgb(214, 39, 40);"><tspan x="425" y="304" dy="0.35em">Firefox 43</tspan></text></g>

<g class="venn-area venn-circle venn-sets-4"><path d="
M 206.8506984585914 250 
m -191.85069845859138 0 
a 191.85069845859138 191.85069845859138 0 1 0 383.70139691718276 0 
a 191.85069845859138 191.85069845859138 0 1 0 -383.70139691718276 0" style="fill-opacity: 0.25; fill: rgb(148, 103, 189); stroke-opacity: 0; stroke: rgb(255, 255, 255); stroke-width: 0px;"></path><text text-anchor="middle" dy=".35em" x="141" y="271" style="fill: rgb(148, 103, 189);"><tspan x="141" y="271" dy="0.35em">Safari 9</tspan></text></g>



<g class="venn-area venn-intersection venn-sets-1_3"><path d="
M 273.48634363683453 261.66814383198016 
A 106.07866456516358 106.07866456516358 0 0 1 430.01520110967573 157.0371043570073 
A 94.44474445573543 94.44474445573543 0 0 1 273.48634363683453 261.66814383198016" style="fill-opacity: 0.25; stroke-opacity: 0; stroke: rgb(255, 255, 255); stroke-width: 4px;"></path><text text-anchor="middle" dy=".35em" x="412" y="181" style="fill: rgb(68, 68, 68);"><tspan x="412" y="181" dy="0.35em"></tspan></text></g>

<g class="venn-area venn-intersection venn-sets-1_4"><path d="
M 337.1373506205588 109.17358639986642 
A 191.85069845859138 191.85069845859138 0 0 1 395.6028193984489 284.3413357304978 
A 94.44474445573543 94.44474445573543 0 1 1 337.1373506205588 109.17358639986642" style="fill-opacity: 0.25; stroke-opacity: 0; stroke: rgb(255, 255, 255); stroke-width: 4px;"></path><text text-anchor="middle" dy=".35em" x="307" y="143" style="fill: rgb(68, 68, 68);"><tspan x="307" y="143" dy="0.35em"></tspan></text></g>

<g class="venn-area venn-intersection venn-sets-3_4"><path d="
M 367.1404274381701 355.42245151153804 
A 106.07866456516358 106.07866456516358 0 0 1 367.1404274381701 144.577548488462 
A 191.85069845859138 191.85069845859138 0 0 1 367.1404274381701 355.42245151153804" style="fill-opacity: 0.25; stroke-opacity: 0; stroke: rgb(255, 255, 255); stroke-width: 4px;"></path><text text-anchor="middle" dy=".35em" x="353" y="324" style="fill: rgb(68, 68, 68);"><tspan x="353" y="324" dy="0.35em"></tspan></text></g>	

<g class="venn-area venn-intersection venn-sets-1_3_4"><path d="
M 273.48634363683453 261.66814383198016 
A 106.07866456516358 106.07866456516358 0 0 1 367.1404274381701 144.577548488462 
A 191.85069845859138 191.85069845859138 0 0 1 395.6028193984489 284.3413357304978 
A 94.44474445573543 94.44474445573543 0 0 1 273.48634363683453 261.66814383198016" style="fill-opacity: 0.25; stroke-opacity: 0; stroke: rgb(255, 255, 255); stroke-width: 4px;"></path></g>  
  
<g class="venn-area venn-intersection venn-sets-1_3_n4"><path d="
M 367.1404274381701 144.577548488462 
A 106.07866456516358 106.07866456516358 0 0 1 430.01520110967573 157.0371043570073 
A 94.44474445573543 94.44474445573543 0 0 1 395.6028193984489 284.3413357304978 
A 191.85069845859138 191.85069845859138 0 0 0 367.1404274381701 144.577548488462" style="fill-opacity: 0.0; stroke-opacity: 0; stroke: rgb(255, 255, 255); stroke-width: 4px;"></path><text text-anchor="middle" dy=".35em" x="250" y="250" style="fill: rgb(68, 68, 68);">x13n4x</text></g>
 
<g class="venn-area venn-intersection venn-sets-1_4_n3"><path d="
M 273.48635120206876 261.66817126650676 
A 94.44474244566159 94.44474244566159 0 0 1 337.1373607629829 109.17360512337632 
A 191.85069437542006 191.85069437542006 0 0 1 367.1404206284055 144.5775517734774 
A 106.07866230748422 106.07866230748422 0 0 0 273.48635120206876 261.66817126650676" style="fill-opacity: 0.0; stroke-opacity: 0; stroke: rgb(255, 255, 255); stroke-width: 4px;"></path><text text-anchor="middle" dy=".35em" x="250" y="250" style="fill: rgb(68, 68, 68);">x14n3x</text></g>

<g class="venn-area venn-intersection venn-sets-3_4_n1"><path d="
M 273.48635120206876 261.66817126650676 
A 94.44474244566159 94.44474244566159 0 0 0 395.6028072495746 284.3413572514725 
A 191.85069437542006 191.85069437542006 0 0 1 367.1404206284055 355.42244822652253 
A 106.07866230748422 106.07866230748422 0 0 1 273.48635120206876 261.66817126650676" style="fill-opacity: 0.0; stroke-opacity: 0; stroke: rgb(255, 255, 255); stroke-width: 4px;"></path><text text-anchor="middle" dy=".35em" x="250" y="250" style="fill: rgb(68, 68, 68);">x34n1x</text></g>

<g class="venn-area venn-intersection venn-sets-1_n3_n4"><path d="
M 337.1373607629829 109.17360512337632 
A 94.44474244566159 94.44474244566159 0 0 1 430.0151808569064 157.03709456112117 
A 106.07866230748422 106.07866230748422 0 0 0 367.1404206284055 144.57755177347744 
A 191.85069437542006 191.85069437542006 0 0 0 337.1373607629829 109.17360512337632" style="fill-opacity: 0.0; stroke-opacity: 0; stroke: rgb(255, 25, 255); stroke-width: 4px;"></path><text text-anchor="middle" dy=".35em" x="250" y="250" style="fill: rgb(68, 68, 68);">x1n3n4x</text></g>
  
 <g class="venn-area venn-intersection venn-sets-3_n1_n4"><path d="
M 360.23570981734713 353.3553429995867 
A 103.99868963708619 103.99868963708619 0 0 0 421.87765365100745 158.8599099159418 
A 92.59288573030878 92.59288573030878 0 1 0 388.1400158303989 283.66797141627654 
A 188.08891804436988 188.08891804436988 0 1 0 360.23570981734713 353.3553429995867" style="fill-opacity: 0.5; stroke-opacity: 1; stroke: rgb(0, 0, 255); stroke-width: 4px;"></path><text text-anchor="middle" dy=".35em" x="250" y="250" style="fill: rgb(68, 68, 68);">x3n1n4x</text></g>

<g class="venn-area venn-intersection venn-sets-4_n1_n3"><path d="
M 273.48635120206876 261.66817126650676 
A 94.44474244566159 94.44474244566159 0 0 1 337.13736076298284 109.1736051233763 
A 191.85069437542006 191.85069437542006 0 1 0 367.1404206284055 355.4224482265226 
A 106.07866230748422 106.07866230748422 0 0 1 273.48635120206876 261.66817126650676" style="fill-opacity: 0.0; stroke-opacity: 0; stroke: rgb(25, 255, 255); stroke-width: 4px;"></path><text text-anchor="middle" dy=".35em" x="250" y="250" style="fill: rgb(68, 68, 68);">x4n1n3x</text></g>


<path d="
M 367.14042606319407 144.57754915174735 
A 106.07866410931011 106.07866410931011 0 0 1 430.0151912886306 157.03709922883132 
A 94.44474404987659 94.44474404987659 0 0 1 395.6028195879482 284.3413255516928 
A 191.85069763414845 191.85069763414845 0 0 0 367.14042606319407 144.57754915174735" style="fill-opacity: 0.5; stroke-opacity: 0; stroke: rgb(0, 0, 0); stroke-width: 4px;"></path>

<path d="
M 273.486345506891 261.6681524666108 
A 94.44474404987659 94.44474404987659 0 0 1 337.13734406441046 109.1735822202903 
A 191.85069763414845 191.85069763414845 0 0 1 367.14042606319407 144.57754915174735 
A 106.07866410931011 106.07866410931011 0 0 0 273.486345506891 261.6681524666108" style="fill-opacity: 0.5; stroke-opacity: 1; stroke: rgb(255, 255, 255); stroke-width: 4px;"></path>

<path d="
M 273.486345506891 261.6681524666108 
A 94.44474404987659 94.44474404987659 0 0 0 395.6028195879482 284.3413255516928 
A 191.85069763414845 191.85069763414845 0 0 1 367.14042606319407 355.42245084825265 
A 106.07866410931011 106.07866410931011 0 0 1 273.486345506891 261.6681524666108" style="fill-opacity: 0.5; stroke-opacity: 0; stroke: rgb(0, 0, 0); stroke-width: 4px;"></path>


 <circle cx="367.1404206284055" cy="355.42244822652253 " r="4" 
	style="fill-opacity: 1; fill:rgb(255, 0, 0); "/>

<circle cx="430.0151808569064" cy="157.03709456112117 " r="4" 
	style="fill-opacity: 1; fill:rgb(175, 0, 0); "/>

<circle cx="395.60280724957454" cy="284.3413572514725 " r="4" 
	style="fill-opacity: 1; fill:rgb(25, 0, 0); "/>
	

  
</svg>